<svg xmlns="http://www.w3.org/2000/svg" width="482" height="482" viewBox="0 0 482 482">
  <g fill="none" fill-rule="evenodd" transform="rotate(45 119.795 291.205)">
    <g transform="translate(21.207 20.5)">
      <rect width="92.793" height="92.793" x="103.103" fill="#FFFFFF"/>
      <rect width="92.793" height="92.793" x="103.103" y="103.103" fill="#FFFFFF"/>
      <rect width="92.793" height="92.793" y="103.103" fill="#FFFFFF"/>
      <rect width="92.793" height="92.793" x="103.103" y="206.207" fill="#FFE604"/>
      <rect width="92.793" height="92.793" y="206.207" fill="#FFFFFF"/>
      <rect width="92.793" height="92.793" x="206.207" fill="#FFFFFF"/>
      <rect width="92.793" height="92.793" x="206.207" y="103.103" fill="#FFE604"/>
      <rect width="92.793" height="92.793" x="206.207" y="206.207" fill="#FFE604"/>
    </g>
    <polygon fill="#FFFFFF" points="10.303 329.697 329.697 329.697 329.697 10.303 340 0 340 340 0 340"/>
    <polygon fill="#FFE604" points="0 103.03 103.03 103.042 103.03 0 340 0 329.697 10.303 113.333 10.303 113.333 113.333 10.303 113.333 10.303 329.697 0 340"/>
  </g>
</svg>
